<svg viewBox="0 0 100 101" fill="none" xmlns="http://www.w3.org/2000/svg">
<g clip-path="url(#clip0_1_8790)">
<path d="M100 0.272705H0V100.273H100V0.272705Z" fill="#3B48CC"/>
<path d="M67.0001 54.246L58.1868 63.046C59.7723 62.6037 61.3022 61.9819 62.7468 61.1927C63.1688 61.4545 63.5292 61.8046 63.8031 62.2188C64.077 62.6331 64.2579 63.1018 64.3334 63.5927C64.3334 66.0327 59.1601 68.686 51.4801 69.766C49.1111 70.0864 46.724 70.2557 44.3334 70.2727H43.0001C32.2268 70.0194 24.3334 66.6194 24.3334 63.606C24.409 63.1152 24.5899 62.6465 24.8638 62.2322C25.1377 61.8179 25.4981 61.4678 25.9201 61.206C30.1068 63.5394 36.8934 64.926 44.3334 64.926H44.4801L45.2268 62.2594C44.9334 62.2594 44.6401 62.2594 44.3334 62.2594C37.0001 62.2594 30.2001 60.806 26.5868 58.5127C25.1468 57.566 24.3468 56.5394 24.3334 55.646V49.4727C28.4134 52.5927 36.5468 54.2194 44.3334 54.2194C45.3868 54.2194 46.4401 54.2194 47.4668 54.126L48.2268 51.4594C46.8934 51.5527 45.6534 51.5927 44.3334 51.5927C32.8934 51.5927 24.3334 48.086 24.3334 44.926C24.409 44.4352 24.5899 43.9665 24.8638 43.5522C25.1377 43.1379 25.4981 42.7878 25.9201 42.526C29.6001 44.5927 35.2534 45.886 41.6668 46.1794L41.7334 43.5127C35.4268 43.206 29.7334 41.846 26.5868 39.8327C25.1601 38.9127 24.3601 37.8727 24.3334 36.966V30.806C28.4134 33.926 36.5468 35.5527 44.3334 35.5527H44.6268L46.0401 32.886H44.3334C32.8934 32.886 24.3334 29.3793 24.3334 26.2193C24.3334 23.0593 32.8934 19.5527 44.3334 19.5527C48.1865 19.5364 52.0275 19.984 55.7734 20.886H63.0934C59.0934 18.446 52.1868 16.886 44.3334 16.886C33.3468 16.886 21.6668 20.1393 21.6668 26.2193V36.9527C21.7069 37.713 21.9069 38.4564 22.2539 39.1341C22.6008 39.8119 23.0868 40.4089 23.6801 40.886C23.0792 41.3711 22.5888 41.9789 22.2416 42.6687C21.8944 43.3585 21.6984 44.1144 21.6668 44.886V55.5527C21.6976 56.3245 21.8932 57.0807 22.2404 57.7706C22.5877 58.4606 23.0786 59.0682 23.6801 59.5527C23.0792 60.0378 22.5888 60.6455 22.2416 61.3353C21.8944 62.0251 21.6984 62.7811 21.6668 63.5527V74.2194C21.6589 74.3125 21.6589 74.4062 21.6668 74.4994C22.0268 80.3527 33.4934 83.4994 44.3334 83.4994C55.1734 83.4994 66.6401 80.3527 67.0001 74.4727C67.0132 74.3798 67.0132 74.2856 67.0001 74.1927V63.526C66.9746 62.7532 66.7813 61.9952 66.4336 61.3045C66.086 60.6138 65.5923 60.0069 64.9868 59.526C65.5883 59.0415 66.0792 58.4339 66.4265 57.744C66.7737 57.054 66.9693 56.2978 67.0001 55.526V54.246ZM64.3334 74.246C64.3334 77.3927 55.7734 80.9127 44.3334 80.9127C32.8934 80.9127 24.3334 77.4327 24.3334 74.246V68.1127C28.4134 71.206 36.5468 72.8327 44.3334 72.8327C52.1201 72.8327 60.2534 71.206 64.3334 68.1127V74.246Z" fill="white"/>
<path d="M28.3334 38.6327C29.2539 38.6327 30.0001 37.8865 30.0001 36.966C30.0001 36.0456 29.2539 35.2994 28.3334 35.2994C27.4129 35.2994 26.6667 36.0456 26.6667 36.966C26.6667 37.8865 27.4129 38.6327 28.3334 38.6327Z" fill="white"/>
<path d="M28.3334 57.2994C29.2539 57.2994 30.0001 56.5532 30.0001 55.6327C30.0001 54.7122 29.2539 53.966 28.3334 53.966C27.4129 53.966 26.6667 54.7122 26.6667 55.6327C26.6667 56.5532 27.4129 57.2994 28.3334 57.2994Z" fill="white"/>
<path d="M28.3334 75.966C29.2539 75.966 30.0001 75.2198 30.0001 74.2994C30.0001 73.3789 29.2539 72.6327 28.3334 72.6327C27.4129 72.6327 26.6667 73.3789 26.6667 74.2994C26.6667 75.2198 27.4129 75.966 28.3334 75.966Z" fill="white"/>
<path d="M47.6669 68.9127C47.4321 68.9102 47.2021 68.8458 47.0002 68.726C46.7405 68.5765 46.5388 68.3439 46.4276 68.0657C46.3163 67.7876 46.3019 67.48 46.3869 67.1927L53.8802 42.246H46.3335C46.1006 42.249 45.871 42.1909 45.6676 42.0776C45.4641 41.9642 45.2939 41.7995 45.1738 41.5999C45.0538 41.4003 44.9882 41.1728 44.9834 40.9399C44.9787 40.707 45.035 40.477 45.1469 40.2727L53.1469 24.2727C53.2577 24.0528 53.4272 23.8679 53.6366 23.7384C53.8461 23.609 54.0873 23.5401 54.3335 23.5394H71.6669C71.8829 23.5286 72.0982 23.5706 72.2944 23.6616C72.4906 23.7527 72.6617 23.8901 72.7929 24.062C72.9241 24.2339 73.0116 24.4352 73.0477 24.6484C73.0838 24.8617 73.0675 25.0805 73.0002 25.286L69.5869 35.5393H77.0669C77.3274 35.5403 77.582 35.6177 77.7991 35.7617C78.0162 35.9058 78.1863 36.1104 78.2884 36.3501C78.3906 36.5898 78.4202 36.8542 78.3737 37.1106C78.3272 37.3669 78.2066 37.6041 78.0269 37.7927L48.6935 68.4593C48.5656 68.605 48.4075 68.721 48.2302 68.7993C48.0529 68.8776 47.8606 68.9163 47.6669 68.9127ZM48.4935 39.5793H55.6669C55.8738 39.5793 56.078 39.6275 56.2631 39.7201C56.4483 39.8127 56.6093 39.9471 56.7335 40.1127C56.8577 40.2783 56.9417 40.4705 56.9787 40.6742C57.0157 40.8778 57.0048 41.0873 56.9469 41.286L50.5335 62.6193L73.8802 38.2193H67.6669C67.4493 38.2309 67.2322 38.189 67.0346 38.0972C66.837 38.0055 66.6649 37.8667 66.5333 37.693C66.4018 37.5194 66.3148 37.3161 66.2799 37.101C66.2451 36.886 66.2635 36.6657 66.3335 36.4593L69.7469 26.2193H55.0802L48.4935 39.5793Z" fill="white"/>
</g>
<defs>
<clipPath id="clip0_1_8790">
<rect width="100" height="100" fill="white" transform="translate(0 0.272705)"/>
</clipPath>
</defs>
</svg>
