<svg viewBox="0 0 93 100" fill="none" xmlns="http://www.w3.org/2000/svg">
<path d="M92.362 44.2269C92.1846 42.6284 92.0068 40.6745 91.2963 38.5431C90.7633 36.4117 89.8755 34.1026 88.632 31.616C87.3885 29.1293 85.7903 26.6426 83.8364 24.1559C83.126 23.2678 82.2377 22.2021 81.1721 21.314C82.5929 15.6302 79.396 10.8345 79.396 10.8345C74.0674 10.4792 70.5148 12.433 69.2713 13.4987C69.0939 13.4987 68.9161 13.3211 68.5609 13.1435C67.6731 12.7883 66.7848 12.433 65.7192 12.0778C64.6535 11.7225 63.7653 11.5449 62.6996 11.1897C61.634 11.0121 60.5679 10.8345 59.6801 10.6568C59.5023 10.6568 59.3249 10.6568 59.1471 10.6568C56.8379 3.19679 50.0884 -0.000366211 50.0884 -0.000366211C42.6285 4.79537 41.2076 11.3673 41.2076 11.3673C41.2076 11.3673 41.2076 11.5449 41.2076 11.7225C40.8523 11.9001 40.3194 11.9001 39.9642 12.0778C39.4313 12.2554 38.8985 12.433 38.188 12.6107C37.6551 12.7883 37.1223 12.9659 36.4118 13.3211C35.3461 13.854 34.1028 14.3868 33.037 14.9197C31.9713 15.4525 30.9056 16.163 29.8399 16.8735C29.6623 16.8735 29.6623 16.6959 29.6623 16.6959C19.1827 12.7883 9.94645 17.584 9.94645 17.584C9.05837 28.5964 14.0317 35.7012 15.0975 36.9445C14.9198 37.655 14.5646 38.3655 14.387 39.076C13.6765 41.5627 12.966 44.2269 12.6108 46.8914C12.6108 47.2466 12.4331 47.6018 12.4331 47.957C2.84167 52.7526 -0.000244141 62.5217 -0.000244141 62.5217C7.99264 71.7581 17.4065 72.2907 17.4065 72.2907C18.6499 74.4225 19.8932 76.3759 21.4917 78.3298C22.2022 79.0402 22.9127 79.9285 23.4456 80.6389C20.6037 88.9871 23.8008 95.9144 23.8008 95.9144C32.6818 96.2697 38.5432 92.0067 39.7866 90.941C40.6747 91.2962 41.5628 91.4736 42.4509 91.8293C45.1151 92.5397 47.9572 92.8949 50.7989 93.0723C51.5093 93.0723 52.2202 93.0723 52.9306 93.0723H53.2858H53.4632H53.8184H54.1736C58.4366 99.1114 65.7192 99.9996 65.7192 99.9996C71.0478 94.4931 71.2252 88.9871 71.2252 87.7436V87.5663V87.3884C72.2909 86.678 73.3565 85.7902 74.4226 84.9019C76.5539 82.948 78.3299 80.8167 79.9286 78.5076C80.1064 78.3298 80.2838 78.1524 80.2838 77.7972C86.3229 78.1524 90.4081 74.0672 90.4081 74.0672C89.3425 67.8503 85.7899 64.8308 85.0794 64.2982H84.9021C84.9021 63.9425 84.9021 63.5873 84.9021 63.2321C84.9021 62.5217 84.9021 61.8113 84.9021 61.2787V60.3904V60.2126V60.0352V59.8574V59.5022V58.9696C84.9021 58.7917 84.9021 58.6143 84.9021 58.4365C84.9021 58.2591 84.9021 58.0813 84.9021 57.9035V57.3709V56.8378C84.7242 56.1274 84.7242 55.417 84.5468 54.8839C83.8364 52.2201 82.9482 49.7331 81.5273 47.424C80.1065 45.1151 78.5078 43.1612 76.5539 41.3851C74.6 39.6089 72.4687 38.3655 70.1596 37.2998C67.8505 36.2341 65.5414 35.7012 63.0549 35.346C61.8114 35.1683 60.7457 35.1683 59.5023 35.1683H59.1471H58.9697H58.7918H58.6145H58.2593C58.0814 35.1683 57.9036 35.1683 57.7262 35.1683C57.1932 35.1683 56.4827 35.346 55.9501 35.346C53.641 35.7012 51.3319 36.5893 49.378 37.8326C47.4241 39.076 45.6481 40.4969 44.2271 42.0955C42.8061 43.6941 41.7404 45.6479 41.0299 47.6018C40.3194 49.5557 39.9642 51.5092 39.7866 53.4631C39.7866 53.9961 39.7866 54.3513 39.7866 54.8839C39.7866 55.0618 39.7866 55.0618 39.7866 55.2396V55.5948C39.7866 55.7722 39.7866 56.1274 39.7866 56.3052C39.9642 57.193 40.1418 58.2591 40.3194 59.1469C40.8523 60.923 41.7404 62.5217 42.6285 63.9425C43.6942 65.3638 44.9375 66.4295 46.1811 67.3173C47.4241 68.2056 48.8454 68.916 50.2663 69.2712C51.6871 69.6264 52.9306 69.8042 54.3515 69.8042C54.5288 69.8042 54.7067 69.8042 54.884 69.8042H55.0619H55.2397C55.4171 69.8042 55.5949 69.8042 55.5949 69.8042C55.5949 69.8042 55.5949 69.8042 55.7723 69.8042H55.9501H56.1275C56.3054 69.8042 56.4827 69.8042 56.6606 69.8042C56.8379 69.8042 57.0158 69.8042 57.1932 69.6264C57.5484 69.6264 57.7262 69.449 58.0814 69.449C58.6145 69.2712 59.1471 69.0938 59.6801 68.7386C60.2127 68.5608 60.5679 68.2056 61.101 67.8503C61.2783 67.8503 61.2788 67.673 61.4562 67.4951C61.9892 67.1399 61.9892 66.4295 61.634 66.0743C61.2788 65.7191 60.7457 65.5412 60.3905 65.8964C60.2127 65.8964 60.2127 66.0743 60.0353 66.0743C59.6801 66.2517 59.3249 66.4295 58.7918 66.6069C58.4366 66.7847 57.9036 66.7847 57.5484 66.9621C57.371 66.9621 57.0158 66.9621 56.8379 66.9621C56.6606 66.9621 56.6606 66.9621 56.4827 66.9621C56.3054 66.9621 56.3054 66.9621 56.1275 66.9621C55.9501 66.9621 55.9501 66.9621 55.7723 66.9621C55.5949 66.9621 55.4171 66.9621 55.4171 66.9621H55.2397H55.0619C54.884 66.9621 54.8845 66.9621 54.7067 66.9621C53.641 66.7847 52.7528 66.6069 51.6871 66.0743C50.6215 65.7191 49.7332 65.0086 48.845 64.2982C47.9572 63.5873 47.2467 62.5217 46.7137 61.6339C46.1811 60.7456 45.6481 59.5022 45.4702 58.2591C45.2928 57.7261 45.2928 57.0157 45.2928 56.4826C45.2928 56.3052 45.2928 56.1274 45.2928 55.95V55.7722V55.5948C45.2928 55.2396 45.2928 54.8839 45.4702 54.5287C46.0033 51.8644 47.2467 49.3779 49.378 47.2466C49.9111 46.7136 50.4437 46.3584 50.9767 45.8253C51.5093 45.4701 52.2202 45.1151 52.7528 44.7598C53.4632 44.4046 54.1736 44.2269 54.7067 44.0493C55.4171 43.8717 56.1275 43.6941 56.8379 43.6941C57.1932 43.6941 57.5484 43.6941 57.9036 43.6941H58.0814H58.4366H58.6145H58.9697C59.6801 43.6941 60.5679 43.8717 61.2783 44.0493C62.877 44.4045 64.2979 44.9374 65.7192 45.8253C68.5609 47.424 70.87 49.9109 72.4687 52.7526C73.1791 54.1735 73.7122 55.7722 74.0674 57.3709C74.0674 57.7261 74.2448 58.2591 74.2448 58.6143V58.9696V59.3248C74.2448 59.5021 74.2448 59.5022 74.2448 59.68C74.2448 59.8574 74.2448 59.8574 74.2448 60.0352V60.3904V60.7456C74.2448 60.923 74.2448 61.2782 74.2448 61.456C74.2448 61.9891 74.2448 62.3443 74.0674 62.8769C74.0674 63.2321 73.8895 63.7652 73.8895 64.1204C73.8895 64.4756 73.7117 65.0086 73.5343 65.3639C73.3565 66.2517 73.0013 67.1399 72.6461 67.8503C71.9356 69.449 71.0478 71.0477 69.9817 72.6459C67.8505 75.4881 65.0088 77.9746 61.634 79.3955C60.0353 80.1063 58.2593 80.6389 56.4827 80.9941C55.5949 81.172 54.7067 81.172 53.8184 81.3493H53.641H53.4632H53.108H52.7528H52.5754C52.0423 81.3493 51.6871 81.3493 51.1541 81.3493C49.2006 81.172 47.2467 80.8168 45.4702 80.2837C43.6942 79.7511 41.7404 79.0402 40.1418 78.1524C36.767 76.3759 33.7475 73.8894 31.2608 70.8699C30.0175 69.449 28.9518 67.8503 28.2413 66.0743C27.3532 64.2982 26.6427 62.5217 26.1099 60.7456C25.577 58.9696 25.2218 57.0157 25.2218 55.2396V54.8839V54.7065V54.3513V53.2857V53.1079V52.7526V52.5753C25.2218 52.3974 25.2218 52.0422 25.2218 51.8644C25.2218 50.9766 25.3994 49.9109 25.3994 49.0227C25.577 48.1344 25.7546 47.0688 25.9323 46.181C26.1099 45.2927 26.2875 44.2269 26.6427 43.3389C27.1756 41.5627 27.8861 39.7865 28.5965 38.0103C30.1951 34.6355 32.1489 31.616 34.6356 29.3069C35.1684 28.774 35.879 28.0636 36.5894 27.5307C37.2999 26.9978 38.0104 26.465 38.7209 26.1098C39.4314 25.5769 40.1418 25.2216 40.8523 24.8664C41.2075 24.6888 41.5628 24.5112 41.918 24.3335C42.0956 24.3335 42.2733 24.1559 42.4509 24.1559C42.6285 24.1559 42.8061 23.9783 42.9838 23.9783C43.6942 23.6231 44.5823 23.4454 45.2928 23.0902C45.4702 23.0902 45.648 22.9126 45.8259 22.9126C46.0033 22.9126 46.1811 22.735 46.3585 22.735C46.7137 22.5573 47.2467 22.5573 47.602 22.3797C47.7793 22.3797 47.9572 22.2021 48.3124 22.2021C48.4898 22.2021 48.6676 22.2021 49.0228 22.0245C49.2006 22.0245 49.378 22.0245 49.7332 21.8469H50.0884H50.4437C50.6215 21.8469 50.7989 21.8469 51.1541 21.6692C51.3319 21.6692 51.6871 21.6692 51.865 21.4916C52.0423 21.4916 52.3976 21.4916 52.5754 21.4916C52.7528 21.4916 52.9306 21.4916 53.108 21.4916H53.4632H53.641H53.8184C53.9962 21.4916 54.3515 21.4916 54.5288 21.4916H54.884H55.0619C55.2397 21.4916 55.4171 21.4916 55.5949 21.4916C56.4827 21.4916 57.1932 21.4916 58.0814 21.4916C59.6801 21.4916 61.2783 21.6692 62.877 22.0245C65.8966 22.5573 68.7387 23.6231 71.403 24.8664C74.0674 26.1098 76.376 27.7083 78.3299 29.4845C78.5078 29.6621 78.5078 29.6621 78.6851 29.8398C78.863 30.0174 78.863 30.0174 79.0404 30.195C79.2182 30.3726 79.5734 30.5502 79.7508 30.9054C79.9286 31.2607 80.2838 31.2607 80.4617 31.616C80.639 31.9712 80.9943 32.1488 81.1721 32.3264C82.0599 33.2145 82.7703 34.1026 83.4812 35.1683C84.9021 36.9445 86.1455 38.8983 87.0333 40.6745C87.0333 40.8522 87.2112 40.8522 87.2112 41.0298C87.2112 41.2074 87.3885 41.2074 87.3885 41.3851C87.5664 41.5627 87.5664 41.7403 87.7438 42.0955C87.9216 42.2731 87.9216 42.4507 88.099 42.806C88.2768 42.9836 88.2768 43.1612 88.4542 43.5165C88.8099 44.4046 89.1651 45.1151 89.3424 45.8253C89.6977 47.0688 90.0529 48.1344 90.2307 49.0227C90.4081 49.3779 90.7633 49.7331 91.1185 49.5557C91.4737 49.5557 91.8294 49.2005 91.8294 48.8448C92.5398 46.7136 92.5398 45.4701 92.362 44.2269Z" fill="url(#paint0_linear_751_776)"/>
<defs>
<linearGradient id="paint0_linear_751_776" x1="46.5191" y1="127.024" x2="46.5191" y2="11.3411" gradientUnits="userSpaceOnUse">
<stop stop-color="#FFF100"/>
<stop offset="1" stop-color="#F05A28"/>
</linearGradient>
</defs>
</svg>
