<svg viewBox="0 0 100 101" fill="none" xmlns="http://www.w3.org/2000/svg">
<g clip-path="url(#clip0_1_8706)">
<path d="M100 0.272461H0V100.272H100V0.272461Z" fill="#D86613"/>
<path d="M80.6667 83.6059H64.24C63.9887 83.6052 63.7427 83.5334 63.5304 83.399C63.318 83.2645 63.148 83.0728 63.04 82.8459L39.8133 34.2725H29.9867C29.633 34.2725 29.2939 34.1321 29.0438 33.882C28.7938 33.632 28.6533 33.2928 28.6533 32.9392V18.2725C28.6533 17.9189 28.7938 17.5798 29.0438 17.3297C29.2939 17.0797 29.633 16.9392 29.9867 16.9392H50.52C50.7713 16.9399 51.0173 17.0116 51.2296 17.1461C51.4419 17.2806 51.6119 17.4723 51.72 17.6992L74.84 66.2725H80.6667C81.0203 66.2725 81.3594 66.413 81.6095 66.6631C81.8595 66.9131 82 67.2522 82 67.6059V82.2725C82 82.6262 81.8595 82.9653 81.6095 83.2153C81.3594 83.4654 81.0203 83.6059 80.6667 83.6059ZM65.08 80.9392H79.3333V68.9392H74C73.7487 68.9385 73.5027 68.8668 73.2904 68.7323C73.078 68.5978 72.9081 68.4061 72.8 68.1792L49.68 19.6059H31.3333V31.6059H40.6667C40.918 31.6066 41.164 31.6783 41.3763 31.8128C41.5886 31.9472 41.7586 32.139 41.8667 32.3659L65.08 80.9392Z" fill="white"/>
<path d="M36.64 83.6059H19.3067C19.0801 83.6063 18.8571 83.549 18.6588 83.4394C18.4605 83.3297 18.2935 83.1713 18.1734 82.9792C18.046 82.7824 17.9728 82.5556 17.9611 82.3215C17.9494 82.0874 17.9996 81.8544 18.1067 81.6459L36.24 43.7659C36.3481 43.539 36.5181 43.3472 36.7304 43.2128C36.9427 43.0783 37.1887 43.0066 37.44 43.0059C37.6899 43.0054 37.9349 43.0751 38.1471 43.2071C38.3593 43.3391 38.5301 43.5281 38.64 43.7525L47.32 61.6059C47.4074 61.7867 47.4528 61.985 47.4528 62.1859C47.4528 62.3867 47.4074 62.585 47.32 62.7659L37.8534 82.7659C37.7563 83.0098 37.5893 83.2196 37.3735 83.369C37.1577 83.5185 36.9025 83.6008 36.64 83.6059ZM21.44 80.9392H35.8L44.64 62.2725L37.4534 47.4059L21.44 80.9392Z" fill="white"/>
</g>
<defs>
<clipPath id="clip0_1_8706">
<rect width="100" height="100" fill="white" transform="translate(0 0.272461)"/>
</clipPath>
</defs>
</svg>
