<svg viewBox="0 0 100 100" fill="none" xmlns="http://www.w3.org/2000/svg">
<g clip-path="url(#clip0_1_8718)">
<path d="M100 0H0V100H100V0Z" fill="#CC2264"/>
<path d="M28.9202 29.3334C32.459 25.8011 36.8356 23.2238 41.6409 21.8423C46.4461 20.4607 51.5233 20.3201 56.3977 21.4335C61.2721 22.5469 65.7847 24.8779 69.5136 28.2088C73.2425 31.5397 76.066 35.7616 77.7202 40.48L80.2402 39.6C78.0334 33.2885 73.9189 27.8193 68.4664 23.9495C63.0138 20.0798 56.493 18.001 49.8069 18.001C43.1207 18.001 36.5999 20.0798 31.1474 23.9495C25.6948 27.8193 21.5803 33.2885 19.3735 39.6L21.8935 40.48C23.3533 36.2764 25.7571 32.4632 28.9202 29.3334Z" fill="white"/>
<path d="M70.6669 70.6668C65.1195 76.2066 57.6001 79.3182 49.7602 79.3182C41.9203 79.3182 34.401 76.2066 28.8536 70.6668C25.6861 67.5092 23.2826 63.6691 21.8269 59.4401L19.3069 60.3201C21.0988 65.4773 24.171 70.0949 28.2355 73.7401C32.3 77.3853 37.2237 79.9385 42.5448 81.1605C47.8659 82.3826 53.4102 82.2332 58.6578 80.7266C63.9054 79.22 68.6845 76.4054 72.5469 72.5468C76.0325 69.0849 78.6701 64.8638 80.2535 60.2134L77.7335 59.3601C76.2771 63.6215 73.8591 67.4903 70.6669 70.6668Z" fill="white"/>
<path d="M26.8668 49.9466C26.8696 48.1446 26.2472 46.3974 25.1059 45.0029C23.9646 43.6083 22.3749 42.6529 20.6078 42.2993C18.8408 41.9457 17.0059 42.216 15.4158 43.064C13.8258 43.912 12.5791 45.2853 11.8883 46.9497C11.1975 48.6141 11.1054 50.4665 11.6276 52.1912C12.1498 53.9159 13.2541 55.4061 14.7522 56.4077C16.2502 57.4093 18.0493 57.8603 19.8427 57.6839C21.636 57.5074 23.3127 56.7144 24.5868 55.44C25.3118 54.721 25.8867 53.8652 26.2781 52.9221C26.6695 51.9791 26.8696 50.9677 26.8668 49.9466ZM22.6668 53.56C21.6932 54.4837 20.4022 54.9987 19.0601 54.9987C17.718 54.9987 16.4271 54.4837 15.4535 53.56C14.7437 52.8459 14.2608 51.9379 14.0656 50.9502C13.8703 49.9625 13.9714 48.9391 14.3561 48.0087C14.7408 47.0782 15.392 46.2823 16.2278 45.7209C17.0635 45.1594 18.0466 44.8576 19.0535 44.8533C20.4074 44.8564 21.7057 45.3929 22.6668 46.3466C23.6218 47.304 24.1582 48.601 24.1582 49.9533C24.1582 51.3056 23.6218 52.6026 22.6668 53.56Z" fill="white"/>
<path d="M86.4002 44.5468C85.315 43.4614 83.9323 42.7222 82.427 42.4226C80.9217 42.1231 79.3613 42.2767 77.9433 42.864C76.5252 43.4513 75.3132 44.4459 74.4605 45.7221C73.6077 46.9982 73.1526 48.4986 73.1526 50.0334C73.1526 51.5683 73.6077 53.0687 74.4605 54.3448C75.3132 55.621 76.5252 56.6156 77.9433 57.2029C79.3613 57.7902 80.9217 57.9438 82.427 57.6442C83.9323 57.3447 85.315 56.6055 86.4002 55.5201C87.8552 54.0649 88.6726 52.0913 88.6726 50.0334C88.6726 47.9756 87.8552 46.002 86.4002 44.5468ZM84.5069 53.6268C83.5518 54.581 82.257 55.117 80.9069 55.117C79.5568 55.117 78.2619 54.581 77.3069 53.6268C76.8328 53.1548 76.4566 52.5938 76.1999 51.976C75.9432 51.3582 75.8111 50.6958 75.8111 50.0268C75.8111 49.3578 75.9432 48.6954 76.1999 48.0776C76.4566 47.4598 76.8328 46.8988 77.3069 46.4268C77.7744 45.9311 78.3367 45.5344 78.9603 45.2599C79.584 44.9855 80.2563 44.8389 80.9376 44.829C81.6189 44.8191 82.2953 44.9459 82.9267 45.2021C83.558 45.4582 84.1316 45.8385 84.6134 46.3203C85.0952 46.8021 85.4754 47.3756 85.7316 48.007C85.9877 48.6384 86.1146 49.3147 86.1047 49.996C86.0947 50.6773 85.9482 51.3497 85.6738 51.9733C85.3993 52.597 85.0025 53.1592 84.5069 53.6268Z" fill="white"/>
<path d="M38.9069 62.9068C44.3735 57.4401 55.5069 57.4401 60.9735 62.9068C61.2219 63.1531 61.5571 63.292 61.9069 63.2934C62.2605 63.2934 62.5996 63.153 62.8497 62.9029C63.0997 62.6529 63.2402 62.3137 63.2402 61.9601C63.2412 61.7846 63.2076 61.6107 63.1412 61.4482C63.0749 61.2858 62.9771 61.138 62.8535 61.0134C60.1316 58.0012 58.696 54.0436 58.8535 49.9868C58.6974 45.9302 60.1328 41.9731 62.8535 38.9601C63.1019 38.7103 63.2413 38.3724 63.2413 38.0201C63.2413 37.6679 63.1019 37.3299 62.8535 37.0801C62.6037 36.8318 62.2658 36.6924 61.9136 36.6924C61.5613 36.6924 61.2234 36.8318 60.9735 37.0801C55.5069 42.5334 44.3735 42.5334 38.9069 37.0801C38.6571 36.8318 38.3191 36.6924 37.9669 36.6924C37.6146 36.6924 37.2767 36.8318 37.0269 37.0801C36.7785 37.3299 36.6392 37.6679 36.6392 38.0201C36.6392 38.3724 36.7785 38.7103 37.0269 38.9601C39.7718 41.9627 41.2316 45.9209 41.0935 49.9868C41.233 54.0529 39.773 58.0116 37.0269 61.0134C36.9033 61.138 36.8055 61.2858 36.7392 61.4482C36.6728 61.6107 36.6392 61.7846 36.6402 61.9601C36.6392 62.1356 36.6728 62.3095 36.7392 62.472C36.8055 62.6344 36.9033 62.7822 37.0269 62.9068C37.2767 63.1551 37.6146 63.2945 37.9669 63.2945C38.3191 63.2945 38.6571 63.1551 38.9069 62.9068ZM42.3602 42.4268C47.2336 44.3339 52.6468 44.3339 57.5202 42.4268C55.6534 47.2985 55.6534 52.6884 57.5202 57.5601C52.6468 55.653 47.2336 55.653 42.3602 57.5601C44.227 52.6884 44.227 47.2985 42.3602 42.4268Z" fill="white"/>
<path d="M66.1735 55.4533L70.6668 50.9066C70.9152 50.6568 71.0546 50.3188 71.0546 49.9666C71.0546 49.6143 70.9152 49.2764 70.6668 49.0266L66.1468 44.5066L64.2535 46.3866L66.5335 48.6533H60.5068V51.3199H66.5335L64.2802 53.5733L66.1735 55.4533Z" fill="white"/>
<path d="M33.9468 55.4799L38.4935 50.9333C38.7418 50.6834 38.8812 50.3455 38.8812 49.9933C38.8812 49.641 38.7418 49.3031 38.4935 49.0533L33.9468 44.5066L32.0668 46.3866L34.3335 48.6533H28.5068V51.3199H34.3335L32.0668 53.5999L33.9468 55.4799Z" fill="white"/>
</g>
<defs>
<clipPath id="clip0_1_8718">
<rect width="100" height="100" fill="white"/>
</clipPath>
</defs>
</svg>
